%FSLAX45Y45*%
G04 Gerber Fmt 4.5, Leading zero omitted, Abs format (unit mm)*
G04 Created by KiCad (PCBNEW 5.1.10) date 2022-01-19 09:48:25*
%MOMM*%
%LPD*%
G01*
G04 APERTURE LIST*
%TA.AperFunction,Profile*%
%ADD10C,0.050000*%
%TD*%
%ADD11C,0.200000*%
%ADD12C,0.300000*%
G04 APERTURE END LIST*
D10*
X5969000Y-2794000D02*
X9906000Y-2794000D01*
X5969000Y-5207000D02*
X5969000Y-2794000D01*
X9906000Y-5207000D02*
X5969000Y-5207000D01*
X9906000Y-2794000D02*
X9906000Y-5207000D01*
D11*
X6818000Y-3270000D02*
X6898000Y-3350000D01*
X6898000Y-3270000D02*
X6818000Y-3350000D01*
X6818000Y-3770000D02*
X6898000Y-3850000D01*
X6898000Y-3770000D02*
X6818000Y-3850000D01*
X7326000Y-3270000D02*
X7406000Y-3350000D01*
X7406000Y-3270000D02*
X7326000Y-3350000D01*
X7326000Y-3770000D02*
X7406000Y-3850000D01*
X7406000Y-3770000D02*
X7326000Y-3850000D01*
X7961000Y-3516000D02*
X8041000Y-3596000D01*
X8041000Y-3516000D02*
X7961000Y-3596000D01*
X7961000Y-4278000D02*
X8041000Y-4358000D01*
X8041000Y-4278000D02*
X7961000Y-4358000D01*
X8342000Y-3516000D02*
X8422000Y-3596000D01*
X8422000Y-3516000D02*
X8342000Y-3596000D01*
X8342000Y-3770000D02*
X8422000Y-3850000D01*
X8422000Y-3770000D02*
X8342000Y-3850000D01*
X8342000Y-4024000D02*
X8422000Y-4104000D01*
X8422000Y-4024000D02*
X8342000Y-4104000D01*
X8342000Y-4278000D02*
X8422000Y-4358000D01*
X8422000Y-4278000D02*
X8342000Y-4358000D01*
X9104000Y-3516000D02*
X9184000Y-3596000D01*
X9184000Y-3516000D02*
X9104000Y-3596000D01*
X9104000Y-3770000D02*
X9184000Y-3850000D01*
X9184000Y-3770000D02*
X9104000Y-3850000D01*
X9104000Y-4024000D02*
X9184000Y-4104000D01*
X9184000Y-4024000D02*
X9104000Y-4104000D01*
X9104000Y-4278000D02*
X9184000Y-4358000D01*
X9184000Y-4278000D02*
X9104000Y-4358000D01*
X9485000Y-3516000D02*
X9565000Y-3596000D01*
X9565000Y-3516000D02*
X9485000Y-3596000D01*
X9485000Y-4278000D02*
X9565000Y-4358000D01*
X9565000Y-4278000D02*
X9485000Y-4358000D01*
X6273000Y-3302000D02*
G75*
G03*
X6273000Y-3302000I-50000J0D01*
G01*
X6273000Y-3556000D02*
G75*
G03*
X6273000Y-3556000I-50000J0D01*
G01*
X8432000Y-3175000D02*
G75*
G03*
X8432000Y-3175000I-50000J0D01*
G01*
X8559000Y-4953000D02*
G75*
G03*
X8559000Y-4953000I-50000J0D01*
G01*
X8686000Y-3175000D02*
G75*
G03*
X8686000Y-3175000I-50000J0D01*
G01*
X8813000Y-4953000D02*
G75*
G03*
X8813000Y-4953000I-50000J0D01*
G01*
X8940000Y-3175000D02*
G75*
G03*
X8940000Y-3175000I-50000J0D01*
G01*
X9067000Y-4953000D02*
G75*
G03*
X9067000Y-4953000I-50000J0D01*
G01*
X9194000Y-3175000D02*
G75*
G03*
X9194000Y-3175000I-50000J0D01*
G01*
X6223000Y-3882000D02*
X6223000Y-3992000D01*
X6168000Y-3937000D02*
X6278000Y-3937000D01*
X6223000Y-4898000D02*
X6223000Y-5008000D01*
X6168000Y-4953000D02*
X6278000Y-4953000D01*
X6858000Y-4390000D02*
X6858000Y-4500000D01*
X6803000Y-4445000D02*
X6913000Y-4445000D01*
X7112000Y-4390000D02*
X7112000Y-4500000D01*
X7057000Y-4445000D02*
X7167000Y-4445000D01*
X7366000Y-4390000D02*
X7366000Y-4500000D01*
X7311000Y-4445000D02*
X7421000Y-4445000D01*
D12*
X6252928Y-5675214D02*
X6252928Y-5375214D01*
X6324357Y-5375214D01*
X6367214Y-5389500D01*
X6395786Y-5418072D01*
X6410071Y-5446643D01*
X6424357Y-5503786D01*
X6424357Y-5546643D01*
X6410071Y-5603786D01*
X6395786Y-5632357D01*
X6367214Y-5660929D01*
X6324357Y-5675214D01*
X6252928Y-5675214D01*
X6552928Y-5675214D02*
X6552928Y-5475214D01*
X6552928Y-5532357D02*
X6567214Y-5503786D01*
X6581500Y-5489500D01*
X6610071Y-5475214D01*
X6638643Y-5475214D01*
X6738643Y-5675214D02*
X6738643Y-5475214D01*
X6738643Y-5375214D02*
X6724357Y-5389500D01*
X6738643Y-5403786D01*
X6752928Y-5389500D01*
X6738643Y-5375214D01*
X6738643Y-5403786D01*
X6924357Y-5675214D02*
X6895786Y-5660929D01*
X6881500Y-5632357D01*
X6881500Y-5375214D01*
X7081500Y-5675214D02*
X7052928Y-5660929D01*
X7038643Y-5632357D01*
X7038643Y-5375214D01*
X7424357Y-5675214D02*
X7424357Y-5375214D01*
X7524357Y-5589500D01*
X7624357Y-5375214D01*
X7624357Y-5675214D01*
X7895786Y-5675214D02*
X7895786Y-5518072D01*
X7881500Y-5489500D01*
X7852928Y-5475214D01*
X7795786Y-5475214D01*
X7767214Y-5489500D01*
X7895786Y-5660929D02*
X7867214Y-5675214D01*
X7795786Y-5675214D01*
X7767214Y-5660929D01*
X7752928Y-5632357D01*
X7752928Y-5603786D01*
X7767214Y-5575214D01*
X7795786Y-5560929D01*
X7867214Y-5560929D01*
X7895786Y-5546643D01*
X8038643Y-5475214D02*
X8038643Y-5775214D01*
X8038643Y-5489500D02*
X8067214Y-5475214D01*
X8124357Y-5475214D01*
X8152928Y-5489500D01*
X8167214Y-5503786D01*
X8181500Y-5532357D01*
X8181500Y-5618071D01*
X8167214Y-5646643D01*
X8152928Y-5660929D01*
X8124357Y-5675214D01*
X8067214Y-5675214D01*
X8038643Y-5660929D01*
X8310071Y-5646643D02*
X8324357Y-5660929D01*
X8310071Y-5675214D01*
X8295786Y-5660929D01*
X8310071Y-5646643D01*
X8310071Y-5675214D01*
X8310071Y-5489500D02*
X8324357Y-5503786D01*
X8310071Y-5518072D01*
X8295786Y-5503786D01*
X8310071Y-5489500D01*
X8310071Y-5518072D01*
X5886500Y-6129500D02*
X5966500Y-6209500D01*
X5966500Y-6129500D02*
X5886500Y-6209500D01*
X6310071Y-6005214D02*
X6338643Y-6005214D01*
X6367214Y-6019500D01*
X6381500Y-6033786D01*
X6395786Y-6062357D01*
X6410071Y-6119500D01*
X6410071Y-6190929D01*
X6395786Y-6248071D01*
X6381500Y-6276643D01*
X6367214Y-6290929D01*
X6338643Y-6305214D01*
X6310071Y-6305214D01*
X6281500Y-6290929D01*
X6267214Y-6276643D01*
X6252928Y-6248071D01*
X6238643Y-6190929D01*
X6238643Y-6119500D01*
X6252928Y-6062357D01*
X6267214Y-6033786D01*
X6281500Y-6019500D01*
X6310071Y-6005214D01*
X6538643Y-6276643D02*
X6552928Y-6290929D01*
X6538643Y-6305214D01*
X6524357Y-6290929D01*
X6538643Y-6276643D01*
X6538643Y-6305214D01*
X6724357Y-6133786D02*
X6695786Y-6119500D01*
X6681500Y-6105214D01*
X6667214Y-6076643D01*
X6667214Y-6062357D01*
X6681500Y-6033786D01*
X6695786Y-6019500D01*
X6724357Y-6005214D01*
X6781500Y-6005214D01*
X6810071Y-6019500D01*
X6824357Y-6033786D01*
X6838643Y-6062357D01*
X6838643Y-6076643D01*
X6824357Y-6105214D01*
X6810071Y-6119500D01*
X6781500Y-6133786D01*
X6724357Y-6133786D01*
X6695786Y-6148071D01*
X6681500Y-6162357D01*
X6667214Y-6190929D01*
X6667214Y-6248071D01*
X6681500Y-6276643D01*
X6695786Y-6290929D01*
X6724357Y-6305214D01*
X6781500Y-6305214D01*
X6810071Y-6290929D01*
X6824357Y-6276643D01*
X6838643Y-6248071D01*
X6838643Y-6190929D01*
X6824357Y-6162357D01*
X6810071Y-6148071D01*
X6781500Y-6133786D01*
X7024357Y-6005214D02*
X7052928Y-6005214D01*
X7081500Y-6019500D01*
X7095786Y-6033786D01*
X7110071Y-6062357D01*
X7124357Y-6119500D01*
X7124357Y-6190929D01*
X7110071Y-6248071D01*
X7095786Y-6276643D01*
X7081500Y-6290929D01*
X7052928Y-6305214D01*
X7024357Y-6305214D01*
X6995786Y-6290929D01*
X6981500Y-6276643D01*
X6967214Y-6248071D01*
X6952928Y-6190929D01*
X6952928Y-6119500D01*
X6967214Y-6062357D01*
X6981500Y-6033786D01*
X6995786Y-6019500D01*
X7024357Y-6005214D01*
X7310071Y-6005214D02*
X7338643Y-6005214D01*
X7367214Y-6019500D01*
X7381500Y-6033786D01*
X7395786Y-6062357D01*
X7410071Y-6119500D01*
X7410071Y-6190929D01*
X7395786Y-6248071D01*
X7381500Y-6276643D01*
X7367214Y-6290929D01*
X7338643Y-6305214D01*
X7310071Y-6305214D01*
X7281500Y-6290929D01*
X7267214Y-6276643D01*
X7252928Y-6248071D01*
X7238643Y-6190929D01*
X7238643Y-6119500D01*
X7252928Y-6062357D01*
X7267214Y-6033786D01*
X7281500Y-6019500D01*
X7310071Y-6005214D01*
X7538643Y-6305214D02*
X7538643Y-6105214D01*
X7538643Y-6133786D02*
X7552928Y-6119500D01*
X7581500Y-6105214D01*
X7624357Y-6105214D01*
X7652928Y-6119500D01*
X7667214Y-6148071D01*
X7667214Y-6305214D01*
X7667214Y-6148071D02*
X7681500Y-6119500D01*
X7710071Y-6105214D01*
X7752928Y-6105214D01*
X7781500Y-6119500D01*
X7795786Y-6148071D01*
X7795786Y-6305214D01*
X7938643Y-6305214D02*
X7938643Y-6105214D01*
X7938643Y-6133786D02*
X7952928Y-6119500D01*
X7981500Y-6105214D01*
X8024357Y-6105214D01*
X8052928Y-6119500D01*
X8067214Y-6148071D01*
X8067214Y-6305214D01*
X8067214Y-6148071D02*
X8081500Y-6119500D01*
X8110071Y-6105214D01*
X8152928Y-6105214D01*
X8181500Y-6119500D01*
X8195786Y-6148071D01*
X8195786Y-6305214D01*
X8781500Y-5990929D02*
X8524357Y-6376643D01*
X9167214Y-6005214D02*
X9195786Y-6005214D01*
X9224357Y-6019500D01*
X9238643Y-6033786D01*
X9252928Y-6062357D01*
X9267214Y-6119500D01*
X9267214Y-6190929D01*
X9252928Y-6248071D01*
X9238643Y-6276643D01*
X9224357Y-6290929D01*
X9195786Y-6305214D01*
X9167214Y-6305214D01*
X9138643Y-6290929D01*
X9124357Y-6276643D01*
X9110071Y-6248071D01*
X9095786Y-6190929D01*
X9095786Y-6119500D01*
X9110071Y-6062357D01*
X9124357Y-6033786D01*
X9138643Y-6019500D01*
X9167214Y-6005214D01*
X9395786Y-6276643D02*
X9410071Y-6290929D01*
X9395786Y-6305214D01*
X9381500Y-6290929D01*
X9395786Y-6276643D01*
X9395786Y-6305214D01*
X9595786Y-6005214D02*
X9624357Y-6005214D01*
X9652928Y-6019500D01*
X9667214Y-6033786D01*
X9681500Y-6062357D01*
X9695786Y-6119500D01*
X9695786Y-6190929D01*
X9681500Y-6248071D01*
X9667214Y-6276643D01*
X9652928Y-6290929D01*
X9624357Y-6305214D01*
X9595786Y-6305214D01*
X9567214Y-6290929D01*
X9552928Y-6276643D01*
X9538643Y-6248071D01*
X9524357Y-6190929D01*
X9524357Y-6119500D01*
X9538643Y-6062357D01*
X9552928Y-6033786D01*
X9567214Y-6019500D01*
X9595786Y-6005214D01*
X9795786Y-6005214D02*
X9981500Y-6005214D01*
X9881500Y-6119500D01*
X9924357Y-6119500D01*
X9952928Y-6133786D01*
X9967214Y-6148071D01*
X9981500Y-6176643D01*
X9981500Y-6248071D01*
X9967214Y-6276643D01*
X9952928Y-6290929D01*
X9924357Y-6305214D01*
X9838643Y-6305214D01*
X9810071Y-6290929D01*
X9795786Y-6276643D01*
X10267214Y-6305214D02*
X10095786Y-6305214D01*
X10181500Y-6305214D02*
X10181500Y-6005214D01*
X10152928Y-6048071D01*
X10124357Y-6076643D01*
X10095786Y-6090929D01*
X10538643Y-6005214D02*
X10395786Y-6005214D01*
X10381500Y-6148071D01*
X10395786Y-6133786D01*
X10424357Y-6119500D01*
X10495786Y-6119500D01*
X10524357Y-6133786D01*
X10538643Y-6148071D01*
X10552928Y-6176643D01*
X10552928Y-6248071D01*
X10538643Y-6276643D01*
X10524357Y-6290929D01*
X10495786Y-6305214D01*
X10424357Y-6305214D01*
X10395786Y-6290929D01*
X10381500Y-6276643D01*
X10667214Y-6005214D02*
X10667214Y-6062357D01*
X10781500Y-6005214D02*
X10781500Y-6062357D01*
X11224357Y-6419500D02*
X11210071Y-6405214D01*
X11181500Y-6362357D01*
X11167214Y-6333786D01*
X11152928Y-6290929D01*
X11138643Y-6219500D01*
X11138643Y-6162357D01*
X11152928Y-6090929D01*
X11167214Y-6048071D01*
X11181500Y-6019500D01*
X11210071Y-5976643D01*
X11224357Y-5962357D01*
X11495786Y-6305214D02*
X11324357Y-6305214D01*
X11410071Y-6305214D02*
X11410071Y-6005214D01*
X11381500Y-6048071D01*
X11352928Y-6076643D01*
X11324357Y-6090929D01*
X11752928Y-6005214D02*
X11695786Y-6005214D01*
X11667214Y-6019500D01*
X11652928Y-6033786D01*
X11624357Y-6076643D01*
X11610071Y-6133786D01*
X11610071Y-6248071D01*
X11624357Y-6276643D01*
X11638643Y-6290929D01*
X11667214Y-6305214D01*
X11724357Y-6305214D01*
X11752928Y-6290929D01*
X11767214Y-6276643D01*
X11781500Y-6248071D01*
X11781500Y-6176643D01*
X11767214Y-6148071D01*
X11752928Y-6133786D01*
X11724357Y-6119500D01*
X11667214Y-6119500D01*
X11638643Y-6133786D01*
X11624357Y-6148071D01*
X11610071Y-6176643D01*
X12138643Y-6305214D02*
X12138643Y-6005214D01*
X12267214Y-6305214D02*
X12267214Y-6148071D01*
X12252928Y-6119500D01*
X12224357Y-6105214D01*
X12181500Y-6105214D01*
X12152928Y-6119500D01*
X12138643Y-6133786D01*
X12452928Y-6305214D02*
X12424357Y-6290929D01*
X12410071Y-6276643D01*
X12395786Y-6248071D01*
X12395786Y-6162357D01*
X12410071Y-6133786D01*
X12424357Y-6119500D01*
X12452928Y-6105214D01*
X12495786Y-6105214D01*
X12524357Y-6119500D01*
X12538643Y-6133786D01*
X12552928Y-6162357D01*
X12552928Y-6248071D01*
X12538643Y-6276643D01*
X12524357Y-6290929D01*
X12495786Y-6305214D01*
X12452928Y-6305214D01*
X12724357Y-6305214D02*
X12695786Y-6290929D01*
X12681500Y-6262357D01*
X12681500Y-6005214D01*
X12952928Y-6290929D02*
X12924357Y-6305214D01*
X12867214Y-6305214D01*
X12838643Y-6290929D01*
X12824357Y-6262357D01*
X12824357Y-6148071D01*
X12838643Y-6119500D01*
X12867214Y-6105214D01*
X12924357Y-6105214D01*
X12952928Y-6119500D01*
X12967214Y-6148071D01*
X12967214Y-6176643D01*
X12824357Y-6205214D01*
X13081500Y-6290929D02*
X13110071Y-6305214D01*
X13167214Y-6305214D01*
X13195786Y-6290929D01*
X13210071Y-6262357D01*
X13210071Y-6248071D01*
X13195786Y-6219500D01*
X13167214Y-6205214D01*
X13124357Y-6205214D01*
X13095786Y-6190929D01*
X13081500Y-6162357D01*
X13081500Y-6148071D01*
X13095786Y-6119500D01*
X13124357Y-6105214D01*
X13167214Y-6105214D01*
X13195786Y-6119500D01*
X13310071Y-6419500D02*
X13324357Y-6405214D01*
X13352928Y-6362357D01*
X13367214Y-6333786D01*
X13381500Y-6290929D01*
X13395786Y-6219500D01*
X13395786Y-6162357D01*
X13381500Y-6090929D01*
X13367214Y-6048071D01*
X13352928Y-6019500D01*
X13324357Y-5976643D01*
X13310071Y-5962357D01*
X5966500Y-6565500D02*
G75*
G03*
X5966500Y-6565500I-50000J0D01*
G01*
X6410071Y-6701214D02*
X6238643Y-6701214D01*
X6324357Y-6701214D02*
X6324357Y-6401214D01*
X6295786Y-6444071D01*
X6267214Y-6472643D01*
X6238643Y-6486929D01*
X6538643Y-6672643D02*
X6552928Y-6686929D01*
X6538643Y-6701214D01*
X6524357Y-6686929D01*
X6538643Y-6672643D01*
X6538643Y-6701214D01*
X6738643Y-6401214D02*
X6767214Y-6401214D01*
X6795786Y-6415500D01*
X6810071Y-6429786D01*
X6824357Y-6458357D01*
X6838643Y-6515500D01*
X6838643Y-6586929D01*
X6824357Y-6644071D01*
X6810071Y-6672643D01*
X6795786Y-6686929D01*
X6767214Y-6701214D01*
X6738643Y-6701214D01*
X6710071Y-6686929D01*
X6695786Y-6672643D01*
X6681500Y-6644071D01*
X6667214Y-6586929D01*
X6667214Y-6515500D01*
X6681500Y-6458357D01*
X6695786Y-6429786D01*
X6710071Y-6415500D01*
X6738643Y-6401214D01*
X7024357Y-6401214D02*
X7052928Y-6401214D01*
X7081500Y-6415500D01*
X7095786Y-6429786D01*
X7110071Y-6458357D01*
X7124357Y-6515500D01*
X7124357Y-6586929D01*
X7110071Y-6644071D01*
X7095786Y-6672643D01*
X7081500Y-6686929D01*
X7052928Y-6701214D01*
X7024357Y-6701214D01*
X6995786Y-6686929D01*
X6981500Y-6672643D01*
X6967214Y-6644071D01*
X6952928Y-6586929D01*
X6952928Y-6515500D01*
X6967214Y-6458357D01*
X6981500Y-6429786D01*
X6995786Y-6415500D01*
X7024357Y-6401214D01*
X7310071Y-6401214D02*
X7338643Y-6401214D01*
X7367214Y-6415500D01*
X7381500Y-6429786D01*
X7395786Y-6458357D01*
X7410071Y-6515500D01*
X7410071Y-6586929D01*
X7395786Y-6644071D01*
X7381500Y-6672643D01*
X7367214Y-6686929D01*
X7338643Y-6701214D01*
X7310071Y-6701214D01*
X7281500Y-6686929D01*
X7267214Y-6672643D01*
X7252928Y-6644071D01*
X7238643Y-6586929D01*
X7238643Y-6515500D01*
X7252928Y-6458357D01*
X7267214Y-6429786D01*
X7281500Y-6415500D01*
X7310071Y-6401214D01*
X7538643Y-6701214D02*
X7538643Y-6501214D01*
X7538643Y-6529786D02*
X7552928Y-6515500D01*
X7581500Y-6501214D01*
X7624357Y-6501214D01*
X7652928Y-6515500D01*
X7667214Y-6544071D01*
X7667214Y-6701214D01*
X7667214Y-6544071D02*
X7681500Y-6515500D01*
X7710071Y-6501214D01*
X7752928Y-6501214D01*
X7781500Y-6515500D01*
X7795786Y-6544071D01*
X7795786Y-6701214D01*
X7938643Y-6701214D02*
X7938643Y-6501214D01*
X7938643Y-6529786D02*
X7952928Y-6515500D01*
X7981500Y-6501214D01*
X8024357Y-6501214D01*
X8052928Y-6515500D01*
X8067214Y-6544071D01*
X8067214Y-6701214D01*
X8067214Y-6544071D02*
X8081500Y-6515500D01*
X8110071Y-6501214D01*
X8152928Y-6501214D01*
X8181500Y-6515500D01*
X8195786Y-6544071D01*
X8195786Y-6701214D01*
X8781500Y-6386929D02*
X8524357Y-6772643D01*
X9167214Y-6401214D02*
X9195786Y-6401214D01*
X9224357Y-6415500D01*
X9238643Y-6429786D01*
X9252928Y-6458357D01*
X9267214Y-6515500D01*
X9267214Y-6586929D01*
X9252928Y-6644071D01*
X9238643Y-6672643D01*
X9224357Y-6686929D01*
X9195786Y-6701214D01*
X9167214Y-6701214D01*
X9138643Y-6686929D01*
X9124357Y-6672643D01*
X9110071Y-6644071D01*
X9095786Y-6586929D01*
X9095786Y-6515500D01*
X9110071Y-6458357D01*
X9124357Y-6429786D01*
X9138643Y-6415500D01*
X9167214Y-6401214D01*
X9395786Y-6672643D02*
X9410071Y-6686929D01*
X9395786Y-6701214D01*
X9381500Y-6686929D01*
X9395786Y-6672643D01*
X9395786Y-6701214D01*
X9595786Y-6401214D02*
X9624357Y-6401214D01*
X9652928Y-6415500D01*
X9667214Y-6429786D01*
X9681500Y-6458357D01*
X9695786Y-6515500D01*
X9695786Y-6586929D01*
X9681500Y-6644071D01*
X9667214Y-6672643D01*
X9652928Y-6686929D01*
X9624357Y-6701214D01*
X9595786Y-6701214D01*
X9567214Y-6686929D01*
X9552928Y-6672643D01*
X9538643Y-6644071D01*
X9524357Y-6586929D01*
X9524357Y-6515500D01*
X9538643Y-6458357D01*
X9552928Y-6429786D01*
X9567214Y-6415500D01*
X9595786Y-6401214D01*
X9795786Y-6401214D02*
X9981500Y-6401214D01*
X9881500Y-6515500D01*
X9924357Y-6515500D01*
X9952928Y-6529786D01*
X9967214Y-6544071D01*
X9981500Y-6572643D01*
X9981500Y-6644071D01*
X9967214Y-6672643D01*
X9952928Y-6686929D01*
X9924357Y-6701214D01*
X9838643Y-6701214D01*
X9810071Y-6686929D01*
X9795786Y-6672643D01*
X10124357Y-6701214D02*
X10181500Y-6701214D01*
X10210071Y-6686929D01*
X10224357Y-6672643D01*
X10252928Y-6629786D01*
X10267214Y-6572643D01*
X10267214Y-6458357D01*
X10252928Y-6429786D01*
X10238643Y-6415500D01*
X10210071Y-6401214D01*
X10152928Y-6401214D01*
X10124357Y-6415500D01*
X10110071Y-6429786D01*
X10095786Y-6458357D01*
X10095786Y-6529786D01*
X10110071Y-6558357D01*
X10124357Y-6572643D01*
X10152928Y-6586929D01*
X10210071Y-6586929D01*
X10238643Y-6572643D01*
X10252928Y-6558357D01*
X10267214Y-6529786D01*
X10524357Y-6501214D02*
X10524357Y-6701214D01*
X10452928Y-6386929D02*
X10381500Y-6601214D01*
X10567214Y-6601214D01*
X10667214Y-6401214D02*
X10667214Y-6458357D01*
X10781500Y-6401214D02*
X10781500Y-6458357D01*
X11224357Y-6815500D02*
X11210071Y-6801214D01*
X11181500Y-6758357D01*
X11167214Y-6729786D01*
X11152928Y-6686929D01*
X11138643Y-6615500D01*
X11138643Y-6558357D01*
X11152928Y-6486929D01*
X11167214Y-6444071D01*
X11181500Y-6415500D01*
X11210071Y-6372643D01*
X11224357Y-6358357D01*
X11352928Y-6701214D02*
X11410071Y-6701214D01*
X11438643Y-6686929D01*
X11452928Y-6672643D01*
X11481500Y-6629786D01*
X11495786Y-6572643D01*
X11495786Y-6458357D01*
X11481500Y-6429786D01*
X11467214Y-6415500D01*
X11438643Y-6401214D01*
X11381500Y-6401214D01*
X11352928Y-6415500D01*
X11338643Y-6429786D01*
X11324357Y-6458357D01*
X11324357Y-6529786D01*
X11338643Y-6558357D01*
X11352928Y-6572643D01*
X11381500Y-6586929D01*
X11438643Y-6586929D01*
X11467214Y-6572643D01*
X11481500Y-6558357D01*
X11495786Y-6529786D01*
X11852928Y-6701214D02*
X11852928Y-6401214D01*
X11981500Y-6701214D02*
X11981500Y-6544071D01*
X11967214Y-6515500D01*
X11938643Y-6501214D01*
X11895786Y-6501214D01*
X11867214Y-6515500D01*
X11852928Y-6529786D01*
X12167214Y-6701214D02*
X12138643Y-6686929D01*
X12124357Y-6672643D01*
X12110071Y-6644071D01*
X12110071Y-6558357D01*
X12124357Y-6529786D01*
X12138643Y-6515500D01*
X12167214Y-6501214D01*
X12210071Y-6501214D01*
X12238643Y-6515500D01*
X12252928Y-6529786D01*
X12267214Y-6558357D01*
X12267214Y-6644071D01*
X12252928Y-6672643D01*
X12238643Y-6686929D01*
X12210071Y-6701214D01*
X12167214Y-6701214D01*
X12438643Y-6701214D02*
X12410071Y-6686929D01*
X12395786Y-6658357D01*
X12395786Y-6401214D01*
X12667214Y-6686929D02*
X12638643Y-6701214D01*
X12581500Y-6701214D01*
X12552928Y-6686929D01*
X12538643Y-6658357D01*
X12538643Y-6544071D01*
X12552928Y-6515500D01*
X12581500Y-6501214D01*
X12638643Y-6501214D01*
X12667214Y-6515500D01*
X12681500Y-6544071D01*
X12681500Y-6572643D01*
X12538643Y-6601214D01*
X12795786Y-6686929D02*
X12824357Y-6701214D01*
X12881500Y-6701214D01*
X12910071Y-6686929D01*
X12924357Y-6658357D01*
X12924357Y-6644071D01*
X12910071Y-6615500D01*
X12881500Y-6601214D01*
X12838643Y-6601214D01*
X12810071Y-6586929D01*
X12795786Y-6558357D01*
X12795786Y-6544071D01*
X12810071Y-6515500D01*
X12838643Y-6501214D01*
X12881500Y-6501214D01*
X12910071Y-6515500D01*
X13024357Y-6815500D02*
X13038643Y-6801214D01*
X13067214Y-6758357D01*
X13081500Y-6729786D01*
X13095786Y-6686929D01*
X13110071Y-6615500D01*
X13110071Y-6558357D01*
X13095786Y-6486929D01*
X13081500Y-6444071D01*
X13067214Y-6415500D01*
X13038643Y-6372643D01*
X13024357Y-6358357D01*
X5911500Y-6906500D02*
X5911500Y-7016500D01*
X5856500Y-6961500D02*
X5966500Y-6961500D01*
X6410071Y-7097214D02*
X6238643Y-7097214D01*
X6324357Y-7097214D02*
X6324357Y-6797214D01*
X6295786Y-6840071D01*
X6267214Y-6868643D01*
X6238643Y-6882929D01*
X6538643Y-7068643D02*
X6552928Y-7082929D01*
X6538643Y-7097214D01*
X6524357Y-7082929D01*
X6538643Y-7068643D01*
X6538643Y-7097214D01*
X6838643Y-7097214D02*
X6667214Y-7097214D01*
X6752928Y-7097214D02*
X6752928Y-6797214D01*
X6724357Y-6840071D01*
X6695786Y-6868643D01*
X6667214Y-6882929D01*
X7024357Y-6797214D02*
X7052928Y-6797214D01*
X7081500Y-6811500D01*
X7095786Y-6825786D01*
X7110071Y-6854357D01*
X7124357Y-6911500D01*
X7124357Y-6982929D01*
X7110071Y-7040071D01*
X7095786Y-7068643D01*
X7081500Y-7082929D01*
X7052928Y-7097214D01*
X7024357Y-7097214D01*
X6995786Y-7082929D01*
X6981500Y-7068643D01*
X6967214Y-7040071D01*
X6952928Y-6982929D01*
X6952928Y-6911500D01*
X6967214Y-6854357D01*
X6981500Y-6825786D01*
X6995786Y-6811500D01*
X7024357Y-6797214D01*
X7310071Y-6797214D02*
X7338643Y-6797214D01*
X7367214Y-6811500D01*
X7381500Y-6825786D01*
X7395786Y-6854357D01*
X7410071Y-6911500D01*
X7410071Y-6982929D01*
X7395786Y-7040071D01*
X7381500Y-7068643D01*
X7367214Y-7082929D01*
X7338643Y-7097214D01*
X7310071Y-7097214D01*
X7281500Y-7082929D01*
X7267214Y-7068643D01*
X7252928Y-7040071D01*
X7238643Y-6982929D01*
X7238643Y-6911500D01*
X7252928Y-6854357D01*
X7267214Y-6825786D01*
X7281500Y-6811500D01*
X7310071Y-6797214D01*
X7538643Y-7097214D02*
X7538643Y-6897214D01*
X7538643Y-6925786D02*
X7552928Y-6911500D01*
X7581500Y-6897214D01*
X7624357Y-6897214D01*
X7652928Y-6911500D01*
X7667214Y-6940071D01*
X7667214Y-7097214D01*
X7667214Y-6940071D02*
X7681500Y-6911500D01*
X7710071Y-6897214D01*
X7752928Y-6897214D01*
X7781500Y-6911500D01*
X7795786Y-6940071D01*
X7795786Y-7097214D01*
X7938643Y-7097214D02*
X7938643Y-6897214D01*
X7938643Y-6925786D02*
X7952928Y-6911500D01*
X7981500Y-6897214D01*
X8024357Y-6897214D01*
X8052928Y-6911500D01*
X8067214Y-6940071D01*
X8067214Y-7097214D01*
X8067214Y-6940071D02*
X8081500Y-6911500D01*
X8110071Y-6897214D01*
X8152928Y-6897214D01*
X8181500Y-6911500D01*
X8195786Y-6940071D01*
X8195786Y-7097214D01*
X8781500Y-6782929D02*
X8524357Y-7168643D01*
X9167214Y-6797214D02*
X9195786Y-6797214D01*
X9224357Y-6811500D01*
X9238643Y-6825786D01*
X9252928Y-6854357D01*
X9267214Y-6911500D01*
X9267214Y-6982929D01*
X9252928Y-7040071D01*
X9238643Y-7068643D01*
X9224357Y-7082929D01*
X9195786Y-7097214D01*
X9167214Y-7097214D01*
X9138643Y-7082929D01*
X9124357Y-7068643D01*
X9110071Y-7040071D01*
X9095786Y-6982929D01*
X9095786Y-6911500D01*
X9110071Y-6854357D01*
X9124357Y-6825786D01*
X9138643Y-6811500D01*
X9167214Y-6797214D01*
X9395786Y-7068643D02*
X9410071Y-7082929D01*
X9395786Y-7097214D01*
X9381500Y-7082929D01*
X9395786Y-7068643D01*
X9395786Y-7097214D01*
X9595786Y-6797214D02*
X9624357Y-6797214D01*
X9652928Y-6811500D01*
X9667214Y-6825786D01*
X9681500Y-6854357D01*
X9695786Y-6911500D01*
X9695786Y-6982929D01*
X9681500Y-7040071D01*
X9667214Y-7068643D01*
X9652928Y-7082929D01*
X9624357Y-7097214D01*
X9595786Y-7097214D01*
X9567214Y-7082929D01*
X9552928Y-7068643D01*
X9538643Y-7040071D01*
X9524357Y-6982929D01*
X9524357Y-6911500D01*
X9538643Y-6854357D01*
X9552928Y-6825786D01*
X9567214Y-6811500D01*
X9595786Y-6797214D01*
X9952928Y-6897214D02*
X9952928Y-7097214D01*
X9881500Y-6782929D02*
X9810071Y-6997214D01*
X9995786Y-6997214D01*
X10081500Y-6797214D02*
X10267214Y-6797214D01*
X10167214Y-6911500D01*
X10210071Y-6911500D01*
X10238643Y-6925786D01*
X10252928Y-6940071D01*
X10267214Y-6968643D01*
X10267214Y-7040071D01*
X10252928Y-7068643D01*
X10238643Y-7082929D01*
X10210071Y-7097214D01*
X10124357Y-7097214D01*
X10095786Y-7082929D01*
X10081500Y-7068643D01*
X10367214Y-6797214D02*
X10552928Y-6797214D01*
X10452928Y-6911500D01*
X10495786Y-6911500D01*
X10524357Y-6925786D01*
X10538643Y-6940071D01*
X10552928Y-6968643D01*
X10552928Y-7040071D01*
X10538643Y-7068643D01*
X10524357Y-7082929D01*
X10495786Y-7097214D01*
X10410071Y-7097214D01*
X10381500Y-7082929D01*
X10367214Y-7068643D01*
X10667214Y-6797214D02*
X10667214Y-6854357D01*
X10781500Y-6797214D02*
X10781500Y-6854357D01*
X11224357Y-7211500D02*
X11210071Y-7197214D01*
X11181500Y-7154357D01*
X11167214Y-7125786D01*
X11152928Y-7082929D01*
X11138643Y-7011500D01*
X11138643Y-6954357D01*
X11152928Y-6882929D01*
X11167214Y-6840071D01*
X11181500Y-6811500D01*
X11210071Y-6768643D01*
X11224357Y-6754357D01*
X11481500Y-6797214D02*
X11338643Y-6797214D01*
X11324357Y-6940071D01*
X11338643Y-6925786D01*
X11367214Y-6911500D01*
X11438643Y-6911500D01*
X11467214Y-6925786D01*
X11481500Y-6940071D01*
X11495786Y-6968643D01*
X11495786Y-7040071D01*
X11481500Y-7068643D01*
X11467214Y-7082929D01*
X11438643Y-7097214D01*
X11367214Y-7097214D01*
X11338643Y-7082929D01*
X11324357Y-7068643D01*
X11852928Y-7097214D02*
X11852928Y-6797214D01*
X11981500Y-7097214D02*
X11981500Y-6940071D01*
X11967214Y-6911500D01*
X11938643Y-6897214D01*
X11895786Y-6897214D01*
X11867214Y-6911500D01*
X11852928Y-6925786D01*
X12167214Y-7097214D02*
X12138643Y-7082929D01*
X12124357Y-7068643D01*
X12110071Y-7040071D01*
X12110071Y-6954357D01*
X12124357Y-6925786D01*
X12138643Y-6911500D01*
X12167214Y-6897214D01*
X12210071Y-6897214D01*
X12238643Y-6911500D01*
X12252928Y-6925786D01*
X12267214Y-6954357D01*
X12267214Y-7040071D01*
X12252928Y-7068643D01*
X12238643Y-7082929D01*
X12210071Y-7097214D01*
X12167214Y-7097214D01*
X12438643Y-7097214D02*
X12410071Y-7082929D01*
X12395786Y-7054357D01*
X12395786Y-6797214D01*
X12667214Y-7082929D02*
X12638643Y-7097214D01*
X12581500Y-7097214D01*
X12552928Y-7082929D01*
X12538643Y-7054357D01*
X12538643Y-6940071D01*
X12552928Y-6911500D01*
X12581500Y-6897214D01*
X12638643Y-6897214D01*
X12667214Y-6911500D01*
X12681500Y-6940071D01*
X12681500Y-6968643D01*
X12538643Y-6997214D01*
X12795786Y-7082929D02*
X12824357Y-7097214D01*
X12881500Y-7097214D01*
X12910071Y-7082929D01*
X12924357Y-7054357D01*
X12924357Y-7040071D01*
X12910071Y-7011500D01*
X12881500Y-6997214D01*
X12838643Y-6997214D01*
X12810071Y-6982929D01*
X12795786Y-6954357D01*
X12795786Y-6940071D01*
X12810071Y-6911500D01*
X12838643Y-6897214D01*
X12881500Y-6897214D01*
X12910071Y-6911500D01*
X13024357Y-7211500D02*
X13038643Y-7197214D01*
X13067214Y-7154357D01*
X13081500Y-7125786D01*
X13095786Y-7082929D01*
X13110071Y-7011500D01*
X13110071Y-6954357D01*
X13095786Y-6882929D01*
X13081500Y-6840071D01*
X13067214Y-6811500D01*
X13038643Y-6768643D01*
X13024357Y-6754357D01*
M02*
