M48
; DRILL file {KiCad 5.1.10} date Wed Jan 19 09:48:30 2022
; FORMAT={-:-/ absolute / metric / decimal}
; #@! TF.CreationDate,2022-01-19T09:48:30+02:00
; #@! TF.GenerationSoftware,Kicad,Pcbnew,5.1.10
; #@! TF.FileFunction,Plated,1,2,PTH
FMAT,2
METRIC
T1C0.800
T2C1.000
T3C1.100
%
G90
G05
T1
X68.58Y-33.1
X68.58Y-38.1
X73.66Y-33.1
X73.66Y-38.1
X80.01Y-35.56
X80.01Y-43.18
X83.82Y-35.56
X83.82Y-38.1
X83.82Y-40.64
X83.82Y-43.18
X91.44Y-35.56
X91.44Y-38.1
X91.44Y-40.64
X91.44Y-43.18
X95.25Y-35.56
X95.25Y-43.18
T2
X62.23Y-33.02
X62.23Y-35.56
X83.82Y-31.75
X85.09Y-49.53
X86.36Y-31.75
X87.63Y-49.53
X88.9Y-31.75
X90.17Y-49.53
X91.44Y-31.75
T3
X62.23Y-39.37
X62.23Y-49.53
X68.58Y-44.45
X71.12Y-44.45
X73.66Y-44.45
T0
M30
