%FSLAX45Y45*%
G04 Gerber Fmt 4.5, Leading zero omitted, Abs format (unit mm)*
G04 Created by KiCad (PCBNEW 5.1.10) date 2022-01-19 09:48:25*
%MOMM*%
%LPD*%
G01*
G04 APERTURE LIST*
%TA.AperFunction,Profile*%
%ADD10C,0.050000*%
%TD*%
%ADD11C,0.200000*%
%ADD12C,0.300000*%
G04 APERTURE END LIST*
D10*
X5969000Y-2794000D02*
X9906000Y-2794000D01*
X5969000Y-5207000D02*
X5969000Y-2794000D01*
X9906000Y-5207000D02*
X5969000Y-5207000D01*
X9906000Y-2794000D02*
X9906000Y-5207000D01*
D11*
D12*
X6252928Y-5675214D02*
X6252928Y-5375214D01*
X6324357Y-5375214D01*
X6367214Y-5389500D01*
X6395786Y-5418072D01*
X6410071Y-5446643D01*
X6424357Y-5503786D01*
X6424357Y-5546643D01*
X6410071Y-5603786D01*
X6395786Y-5632357D01*
X6367214Y-5660929D01*
X6324357Y-5675214D01*
X6252928Y-5675214D01*
X6552928Y-5675214D02*
X6552928Y-5475214D01*
X6552928Y-5532357D02*
X6567214Y-5503786D01*
X6581500Y-5489500D01*
X6610071Y-5475214D01*
X6638643Y-5475214D01*
X6738643Y-5675214D02*
X6738643Y-5475214D01*
X6738643Y-5375214D02*
X6724357Y-5389500D01*
X6738643Y-5403786D01*
X6752928Y-5389500D01*
X6738643Y-5375214D01*
X6738643Y-5403786D01*
X6924357Y-5675214D02*
X6895786Y-5660929D01*
X6881500Y-5632357D01*
X6881500Y-5375214D01*
X7081500Y-5675214D02*
X7052928Y-5660929D01*
X7038643Y-5632357D01*
X7038643Y-5375214D01*
X7424357Y-5675214D02*
X7424357Y-5375214D01*
X7524357Y-5589500D01*
X7624357Y-5375214D01*
X7624357Y-5675214D01*
X7895786Y-5675214D02*
X7895786Y-5518072D01*
X7881500Y-5489500D01*
X7852928Y-5475214D01*
X7795786Y-5475214D01*
X7767214Y-5489500D01*
X7895786Y-5660929D02*
X7867214Y-5675214D01*
X7795786Y-5675214D01*
X7767214Y-5660929D01*
X7752928Y-5632357D01*
X7752928Y-5603786D01*
X7767214Y-5575214D01*
X7795786Y-5560929D01*
X7867214Y-5560929D01*
X7895786Y-5546643D01*
X8038643Y-5475214D02*
X8038643Y-5775214D01*
X8038643Y-5489500D02*
X8067214Y-5475214D01*
X8124357Y-5475214D01*
X8152928Y-5489500D01*
X8167214Y-5503786D01*
X8181500Y-5532357D01*
X8181500Y-5618071D01*
X8167214Y-5646643D01*
X8152928Y-5660929D01*
X8124357Y-5675214D01*
X8067214Y-5675214D01*
X8038643Y-5660929D01*
X8310071Y-5646643D02*
X8324357Y-5660929D01*
X8310071Y-5675214D01*
X8295786Y-5660929D01*
X8310071Y-5646643D01*
X8310071Y-5675214D01*
X8310071Y-5489500D02*
X8324357Y-5503786D01*
X8310071Y-5518072D01*
X8295786Y-5503786D01*
X8310071Y-5489500D01*
X8310071Y-5518072D01*
M02*
